<svg width="18" height="18" viewBox="0 0 18 18" fill="none" xmlns="http://www.w3.org/2000/svg">
<path d="M8.99996 0.666687C7.90561 0.666687 6.82198 0.882235 5.81093 1.30102C4.79988 1.71981 3.88122 2.33364 3.1074 3.10746C1.5446 4.67027 0.666626 6.78988 0.666626 9.00002C0.666626 11.2102 1.5446 13.3298 3.1074 14.8926C3.88122 15.6664 4.79988 16.2802 5.81093 16.699C6.82198 17.1178 7.90561 17.3334 8.99996 17.3334C11.2101 17.3334 13.3297 16.4554 14.8925 14.8926C16.4553 13.3298 17.3333 11.2102 17.3333 9.00002C17.3333 7.90567 17.1177 6.82204 16.699 5.81099C16.2802 4.79994 15.6663 3.88129 14.8925 3.10746C14.1187 2.33364 13.2 1.71981 12.189 1.30102C11.1779 0.882235 10.0943 0.666687 8.99996 0.666687ZM4.89163 14.2334C5.24996 13.4834 7.43329 12.75 8.99996 12.75C10.5666 12.75 12.75 13.4834 13.1083 14.2334C11.9411 15.1634 10.4924 15.6688 8.99996 15.6667C7.44996 15.6667 6.02496 15.1334 4.89163 14.2334ZM14.3 13.025C13.1083 11.575 10.2166 11.0834 8.99996 11.0834C7.78329 11.0834 4.89163 11.575 3.69996 13.025C2.81345 11.8705 2.33301 10.4556 2.33329 9.00002C2.33329 5.32502 5.32496 2.33335 8.99996 2.33335C12.675 2.33335 15.6666 5.32502 15.6666 9.00002C15.6666 10.5167 15.15 11.9167 14.3 13.025ZM8.99996 4.00002C7.38329 4.00002 6.08329 5.30002 6.08329 6.91669C6.08329 8.53335 7.38329 9.83335 8.99996 9.83335C10.6166 9.83335 11.9166 8.53335 11.9166 6.91669C11.9166 5.30002 10.6166 4.00002 8.99996 4.00002ZM8.99996 8.16669C8.66844 8.16669 8.3505 8.03499 8.11608 7.80057C7.88166 7.56615 7.74996 7.24821 7.74996 6.91669C7.74996 6.58517 7.88166 6.26722 8.11608 6.0328C8.3505 5.79838 8.66844 5.66669 8.99996 5.66669C9.33148 5.66669 9.64942 5.79838 9.88384 6.0328C10.1183 6.26722 10.25 6.58517 10.25 6.91669C10.25 7.24821 10.1183 7.56615 9.88384 7.80057C9.64942 8.03499 9.33148 8.16669 8.99996 8.16669Z" fill="white"/>
</svg>
