<svg width="20" height="18" viewBox="0 0 20 18" fill="none" xmlns="http://www.w3.org/2000/svg">
<path d="M8.09526 13.7619L6.19049 17.0952M11.9048 13.7619L13.8095 16.619M1.42859 3.28571H18.5714M16.6667 12.8095V3.27142H3.33335V12.8095C3.33335 13.0621 3.43369 13.3043 3.6123 13.483C3.7909 13.6616 4.03314 13.7619 4.28573 13.7619H15.7143C15.9669 13.7619 16.2091 13.6616 16.3877 13.483C16.5663 13.3043 16.6667 13.0621 16.6667 12.8095Z" stroke="white" stroke-linecap="round" stroke-linejoin="round"/>
<path fill-rule="evenodd" clip-rule="evenodd" d="M9.99902 1.37903C10.4797 1.38004 10.9423 1.56231 11.2945 1.88944C11.6467 2.21657 11.8626 2.66449 11.899 3.14379L11.9047 3.2857L8.09522 3.28379C8.09426 2.23141 8.94664 1.37903 9.99902 1.37903Z" stroke="white" stroke-linecap="round" stroke-linejoin="round"/>
</svg>
