<svg width="18" height="18" viewBox="0 0 18 18" fill="none" xmlns="http://www.w3.org/2000/svg">
<path d="M16.7417 3.90832L8.40838 12.2417C8.33128 12.3189 8.23971 12.3802 8.1389 12.422C8.03809 12.4638 7.93002 12.4854 7.82088 12.4854C7.71174 12.4854 7.60367 12.4638 7.50286 12.422C7.40205 12.3802 7.31047 12.3189 7.23338 12.2417L4.87504 9.88332C4.79789 9.80617 4.73669 9.71458 4.69494 9.61377C4.65318 9.51297 4.63169 9.40493 4.63169 9.29582C4.63169 9.18671 4.65318 9.07867 4.69494 8.97787C4.73669 8.87706 4.79789 8.78547 4.87504 8.70832C4.95219 8.63117 5.04379 8.56997 5.14459 8.52821C5.24539 8.48646 5.35343 8.46497 5.46254 8.46497C5.57165 8.46497 5.67969 8.48646 5.7805 8.52821C5.8813 8.56997 5.97289 8.63117 6.05004 8.70832L7.81671 10.475L15.5584 2.73332C15.6355 2.65607 15.727 2.59478 15.8279 2.55296C15.9287 2.51114 16.0367 2.48962 16.1459 2.48962C16.255 2.48962 16.3631 2.51114 16.4639 2.55296C16.5647 2.59478 16.6563 2.65607 16.7334 2.73332C17.0667 3.05832 17.0667 3.58332 16.7417 3.90832ZM12.1417 1.28332C10.7334 0.708319 9.13338 0.508319 7.46671 0.808319C4.07504 1.41665 1.36671 4.14999 0.79171 7.54165C0.563564 8.83386 0.643518 10.1617 1.02507 11.4172C1.40663 12.6727 2.07902 13.8204 2.98761 14.7672C3.89619 15.7139 5.01533 16.4329 6.25407 16.8658C7.49282 17.2986 8.81621 17.4331 10.1167 17.2583C13.4167 16.8333 16.1834 14.375 17.05 11.1667C17.3834 9.94165 17.4167 8.75832 17.225 7.64999C17.1167 6.98332 16.2917 6.72499 15.8084 7.19999C15.6167 7.39165 15.5334 7.67499 15.5834 7.94165C15.7667 9.04999 15.6834 10.2333 15.15 11.4917C14.1834 13.75 12.0834 15.4083 9.64171 15.6333C5.39171 16.025 1.86671 12.425 2.39171 8.14999C2.75004 5.19999 5.12504 2.79999 8.06671 2.39165C9.50838 2.19165 10.875 2.46665 12.0417 3.06665C12.2384 3.16942 12.4679 3.18985 12.6796 3.12343C12.8914 3.05701 13.0681 2.90919 13.1709 2.71249C13.2736 2.51578 13.2941 2.28631 13.2277 2.07455C13.1612 1.86279 13.0134 1.68609 12.8167 1.58332C12.5917 1.48332 12.3667 1.37499 12.1417 1.28332Z" fill="white"/>
</svg>
