<svg width="20" height="20" viewBox="0 0 20 20" fill="none" xmlns="http://www.w3.org/2000/svg">
<g clip-path="url(#clip0_101_410)">
<path d="M9.99995 19.2857C15.1283 19.2857 19.2857 15.1283 19.2857 9.99995C19.2857 4.87159 15.1283 0.714233 9.99995 0.714233C4.87159 0.714233 0.714233 4.87159 0.714233 9.99995C0.714233 15.1283 4.87159 19.2857 9.99995 19.2857Z" stroke="white" stroke-linecap="round" stroke-linejoin="round"/>
<path d="M7.85718 7.85709C7.85718 7.43327 7.98285 7.01898 8.21831 6.66658C8.45377 6.31419 8.78844 6.03954 9.18 5.87735C9.57155 5.71516 10.0024 5.67273 10.4181 5.75541C10.8338 5.83809 11.2156 6.04218 11.5153 6.34186C11.8149 6.64155 12.019 7.02337 12.1017 7.43904C12.1844 7.85471 12.142 8.28557 11.9798 8.67713C11.8176 9.06868 11.5429 9.40335 11.1905 9.63881C10.8382 9.87427 10.4239 9.99995 10 9.99995V11.4285" stroke="white" stroke-linecap="round" stroke-linejoin="round"/>
<path d="M10 13.5714C9.78811 13.5714 9.58096 13.6342 9.40476 13.752C9.22857 13.8697 9.09124 14.037 9.01015 14.2328C8.92905 14.4286 8.90784 14.644 8.94918 14.8519C8.99052 15.0597 9.09256 15.2506 9.2424 15.4005C9.39225 15.5503 9.58316 15.6523 9.79099 15.6937C9.99883 15.735 10.2143 15.7138 10.41 15.6327C10.6058 15.5516 10.7731 15.4143 10.8909 15.2381C11.0086 15.0619 11.0714 14.8547 11.0714 14.6428C11.0677 14.3598 10.9537 14.0895 10.7535 13.8893C10.5534 13.6892 10.283 13.5751 10 13.5714Z" fill="white"/>
</g>
<defs>
<clipPath id="clip0_101_410">
<rect width="20" height="20" fill="white"/>
</clipPath>
</defs>
</svg>
