<svg width="19" height="15" viewBox="0 0 19 15" fill="none" xmlns="http://www.w3.org/2000/svg">
<path d="M5.48375 12.7212L13.505 1.26249C13.5509 1.19252 13.6103 1.13247 13.6798 1.08591C13.7493 1.03935 13.8275 1.00721 13.9096 0.991411C13.9918 0.975611 14.0763 0.976465 14.1581 0.993925C14.2399 1.01139 14.3174 1.04509 14.386 1.09306C14.4545 1.14102 14.5127 1.20225 14.5572 1.27313C14.6016 1.34401 14.6314 1.4231 14.6447 1.50569C14.658 1.58829 14.6546 1.67272 14.6347 1.75398C14.6148 1.83523 14.5788 1.91166 14.5288 1.97874L6.1375 13.9662C6.08952 14.035 6.02817 14.0935 5.95713 14.138C5.88609 14.1826 5.8068 14.2125 5.72398 14.2258C5.64117 14.2391 5.55652 14.2355 5.47509 14.2154C5.39366 14.1953 5.31711 14.159 5.25 14.1087L0.750003 10.7337C0.684342 10.6845 0.629023 10.6228 0.587206 10.5522C0.545389 10.4815 0.517891 10.4034 0.506284 10.3221C0.482842 10.158 0.525546 9.99135 0.625003 9.85874C0.724459 9.72613 0.87252 9.63846 1.03661 9.61502C1.20071 9.59158 1.36739 9.63428 1.5 9.73374L5.48375 12.7212ZM14.375 6.74999C14.2092 6.74999 14.0503 6.68414 13.9331 6.56693C13.8158 6.44972 13.75 6.29075 13.75 6.12499C13.75 5.95923 13.8158 5.80026 13.9331 5.68305C14.0503 5.56583 14.2092 5.49999 14.375 5.49999H18.125C18.2908 5.49999 18.4497 5.56583 18.5669 5.68305C18.6842 5.80026 18.75 5.95923 18.75 6.12499C18.75 6.29075 18.6842 6.44972 18.5669 6.56693C18.4497 6.68414 18.2908 6.74999 18.125 6.74999H14.375ZM11.875 10.5C11.7092 10.5 11.5503 10.4341 11.4331 10.3169C11.3158 10.1997 11.25 10.0407 11.25 9.87499C11.25 9.70923 11.3158 9.55025 11.4331 9.43304C11.5503 9.31583 11.7092 9.24999 11.875 9.24999H18.1238C18.2895 9.24999 18.4485 9.31583 18.5657 9.43304C18.6829 9.55025 18.7488 9.70923 18.7488 9.87499C18.7488 10.0407 18.6829 10.1997 18.5657 10.3169C18.4485 10.4341 18.2895 10.5 18.1238 10.5H11.875ZM9.375 14.25C9.20924 14.25 9.05027 14.1841 8.93306 14.0669C8.81585 13.9497 8.75 13.7907 8.75 13.625C8.75 13.4592 8.81585 13.3003 8.93306 13.183C9.05027 13.0658 9.20924 13 9.375 13H18.1238C18.2895 13 18.4485 13.0658 18.5657 13.183C18.6829 13.3003 18.7488 13.4592 18.7488 13.625C18.7488 13.7907 18.6829 13.9497 18.5657 14.0669C18.4485 14.1841 18.2895 14.25 18.1238 14.25H9.375Z" fill="white"/>
</svg>
