<svg width="16" height="17" viewBox="0 0 16 17" fill="none" xmlns="http://www.w3.org/2000/svg">
<path d="M6.76925 0.746989C7.1183 0.467367 7.5522 0.315002 7.99944 0.315002C8.44668 0.315002 8.88058 0.467367 9.22963 0.746989L15.1359 5.47199C15.6028 5.84549 15.875 6.41136 15.875 7.00986V14.9062C15.875 15.4284 15.6676 15.9291 15.2984 16.2984C14.9292 16.6676 14.4284 16.875 13.9062 16.875H9.96875C9.74497 16.875 9.53036 16.7861 9.37213 16.6279C9.21389 16.4696 9.125 16.255 9.125 16.0312V10.125H6.875V16.0312C6.875 16.255 6.78611 16.4696 6.62787 16.6279C6.46964 16.7861 6.25503 16.875 6.03125 16.875H2.09375C1.57161 16.875 1.07085 16.6676 0.701634 16.2984C0.332421 15.9291 0.125 15.4284 0.125 14.9062V7.00874C0.125 6.41136 0.39725 5.84549 0.864125 5.47199L6.76925 0.746989ZM8.1755 2.06436C8.12566 2.02457 8.06378 2.00289 8 2.00289C7.93622 2.00289 7.87434 2.02457 7.8245 2.06436L1.91825 6.78936C1.88516 6.81579 1.85847 6.84934 1.84016 6.88752C1.82184 6.9257 1.81239 6.96752 1.8125 7.00986V14.9062C1.8125 15.0615 1.9385 15.1875 2.09375 15.1875H5.1875V9.28124C5.1875 9.05746 5.27639 8.84285 5.43463 8.68462C5.59286 8.52638 5.80747 8.43749 6.03125 8.43749H9.96875C10.1925 8.43749 10.4071 8.52638 10.5654 8.68462C10.7236 8.84285 10.8125 9.05746 10.8125 9.28124V15.1875H13.9062C13.9808 15.1875 14.0524 15.1579 14.1051 15.1051C14.1579 15.0524 14.1875 14.9808 14.1875 14.9062V7.00874C14.1874 6.96658 14.1779 6.92498 14.1596 6.88701C14.1413 6.84904 14.1147 6.81567 14.0817 6.78936L8.1755 2.06436Z" fill="white"/>
</svg>
