<svg width="16" height="14" viewBox="0 0 16 14" fill="none" xmlns="http://www.w3.org/2000/svg">
<path d="M5.09497 13.6667H1.76164C1.31961 13.6667 0.895687 13.4911 0.583126 13.1786C0.270566 12.866 0.0949707 12.4421 0.0949707 12V2.00004C0.0949707 1.55801 0.270566 1.13409 0.583126 0.821529C0.895687 0.508969 1.31961 0.333374 1.76164 0.333374H5.09497V2.00004H1.76164V12H5.09497V13.6667Z" fill="white"/>
<path d="M9.53498 11.4875L10.7183 10.3142L7.45165 7.02003H15.0717C15.2927 7.02003 15.5046 6.93223 15.6609 6.77595C15.8172 6.61967 15.905 6.40771 15.905 6.18669C15.905 5.96568 15.8172 5.75372 15.6609 5.59744C15.5046 5.44116 15.2927 5.35336 15.0717 5.35336H7.43665L10.7533 2.06419L9.57998 0.880859L4.25415 6.16169L9.53498 11.4875Z" fill="white"/>
</svg>
