<svg width="16" height="16" viewBox="0 0 16 16" fill="none" xmlns="http://www.w3.org/2000/svg">
<path d="M12.1667 7.16667C11.2826 7.16667 10.4348 6.81548 9.80964 6.19036C9.18452 5.56523 8.83333 4.71739 8.83333 3.83333C8.83333 2.94928 9.18452 2.10143 9.80964 1.47631C10.4348 0.851189 11.2826 0.5 12.1667 0.5C13.0507 0.5 13.8986 0.851189 14.5237 1.47631C15.1488 2.10143 15.5 2.94928 15.5 3.83333C15.5 4.71739 15.1488 5.56523 14.5237 6.19036C13.8986 6.81548 13.0507 7.16667 12.1667 7.16667ZM2.16667 2.16667H7.16667V3.83333H2.16667V13.8333H12.1667V8.83333H13.8333V13.8333C13.8333 14.2754 13.6577 14.6993 13.3452 15.0118C13.0326 15.3244 12.6087 15.5 12.1667 15.5H2.16667C1.72464 15.5 1.30072 15.3244 0.988155 15.0118C0.675595 14.6993 0.5 14.2754 0.5 13.8333V3.83333C0.5 3.39131 0.675595 2.96738 0.988155 2.65482C1.30072 2.34226 1.72464 2.16667 2.16667 2.16667Z" fill="white"/>
</svg>
