<svg width="69" height="69" viewBox="0 0 69 69" fill="none" xmlns="http://www.w3.org/2000/svg">
<g clip-path="url(#clip0_110_5789)">
<path d="M34.5 69C15.4463 69 0 53.5537 0 34.5C0 15.4452 15.4463 0 34.5 0C53.5548 0 69 15.4452 69 34.5C69 53.5537 53.5548 69 34.5 69ZM34.5 4.24458C17.8548 4.24458 4.3125 17.8548 4.3125 34.5001C4.3125 51.1453 17.8548 64.6876 34.5 64.6876C51.1452 64.6876 64.6875 51.1452 64.6875 34.5001C64.6875 17.855 51.1452 4.24458 34.5 4.24458ZM49.5938 36.6562H36.6562V49.5938C36.6562 50.784 35.6903 51.75 34.5 51.75C33.3097 51.75 32.3438 50.784 32.3438 49.5938V36.6562H19.4062C18.216 36.6562 17.25 35.6903 17.25 34.5C17.25 33.3097 18.216 32.3438 19.4062 32.3438H32.3438V19.4062C32.3438 18.216 33.3097 17.25 34.5 17.25C35.6903 17.25 36.6562 18.216 36.6562 19.4062V32.3438H49.5938C50.784 32.3438 51.75 33.3097 51.75 34.5C51.75 35.6903 50.784 36.6562 49.5938 36.6562Z" fill="url(#paint0_linear_110_5789)"/>
</g>
<defs>
<linearGradient id="paint0_linear_110_5789" x1="0" y1="69" x2="71.6958" y2="2.92514" gradientUnits="userSpaceOnUse">
<stop stop-color="#572886"/>
<stop offset="1" stop-color="#260D67"/>
</linearGradient>
<clipPath id="clip0_110_5789">
<rect width="69" height="69" fill="white" transform="matrix(1 0 0 -1 0 69)"/>
</clipPath>
</defs>
</svg>
