<svg width="100" height="100" viewBox="0 0 100 100" fill="none" xmlns="http://www.w3.org/2000/svg">
<path fill-rule="evenodd" clip-rule="evenodd" d="M100 50C100 77.6142 77.6142 100 50 100C22.3858 100 0 77.6142 0 50C0 22.3858 22.3858 0 50 0C77.6142 0 100 22.3858 100 50ZM66.0137 32.3484C67.5925 30.5067 70.3653 30.2936 72.207 31.8724C74.0486 33.4512 74.2617 36.2241 72.6829 38.0658L45.6675 69.5791C45.3633 69.9339 45.0148 70.2283 44.6372 70.461C42.7589 71.7619 40.1615 71.5071 38.5767 69.7741L26.6976 56.7843C24.9685 54.8935 25.0995 51.9589 26.9904 50.2297C28.8812 48.5006 31.8158 48.6317 33.545 50.5225L42.262 60.0546L66.0137 32.3484Z" fill="white" fill-opacity="0.8"/>
</svg>
