<svg width="69" height="69" viewBox="0 0 69 69" fill="none" xmlns="http://www.w3.org/2000/svg">
<rect opacity="0.8" width="69" height="69" rx="34.5" fill="black"/>
<path d="M17 33C16.4477 33 16 33.4477 16 34C16 34.5523 16.4477 35 17 35V33ZM52.7071 34.7071C53.0976 34.3166 53.0976 33.6834 52.7071 33.2929L46.3431 26.9289C45.9526 26.5384 45.3195 26.5384 44.9289 26.9289C44.5384 27.3195 44.5384 27.9526 44.9289 28.3431L50.5858 34L44.9289 39.6569C44.5384 40.0474 44.5384 40.6805 44.9289 41.0711C45.3195 41.4616 45.9526 41.4616 46.3431 41.0711L52.7071 34.7071ZM17 35L52 35V33L17 33V35Z" fill="white" fill-opacity="0.8"/>
</svg>
