<svg width="120" height="196" viewBox="0 0 120 196" fill="none" xmlns="http://www.w3.org/2000/svg">
<path d="M115.271 116.747L52.9734 134.839L59.9787 195.746L115.271 116.747Z" fill="#EAB364"/>
<path d="M118.537 36.027L59.6011 29.0733L59.5876 0.512418C59.5876 0.30565 59.6865 0.0539305 59.9786 0.00448608L118.933 15.0041L118.537 36.027Z" fill="#DC4F6D"/>
<path d="M59.9788 29.0149L3.1814 33.7975V8.82359L59.9788 0V29.0149Z" fill="#A3163D"/>
<path d="M115.073 61.7022L68.1883 65.0958L68.1748 36.5349C68.1748 36.3282 68.2737 36.0765 68.5658 36.027L115.464 40.6793L115.073 61.7022Z" fill="#DC4F6D"/>
<path d="M68.1703 65.2172L0 64.1654V39.1915L68.1703 36.027V65.2172Z" fill="#A3163D"/>
<path d="M118.735 86.1187L59.9786 97.2482V71.9462C59.9786 71.7394 60.0774 71.4877 60.3695 71.4382L119.126 65.0914L118.735 86.1187Z" fill="#DC4F6D"/>
<path d="M59.9786 97.2527L2.32292 92.1555L1.73877 69.7346L59.9786 71.3843V97.2527Z" fill="#A3163D"/>
<path d="M115.271 116.747L52.9734 134.839V108.202C52.9734 107.996 53.0723 107.744 53.3644 107.694L115.662 95.7244L115.271 116.747Z" fill="#DC4F6D"/>
<path d="M52.9734 134.839L0 125.157V101.487L52.9734 107.942V134.839Z" fill="#A3163D"/>
<path d="M0 125.157L59.9788 195.746L52.9734 134.839L0 125.157Z" fill="#C54662"/>
<path d="M59.9788 195.746L76.0294 172.813L58.105 179.461" fill="#DC4F6D"/>
</svg>
