<svg width="14" height="18" viewBox="0 0 14 18" fill="none" xmlns="http://www.w3.org/2000/svg">
<path d="M7.0033 0.875C4.60017 0.875 2.6283 2.84687 2.6283 5.25V7.04688C2.03497 7.62688 1.56349 8.31956 1.24151 9.08426C0.919528 9.84896 0.753543 10.6703 0.753296 11.5C0.753296 14.9438 3.55955 17.75 7.0033 17.75C10.447 17.75 13.2533 14.9438 13.2533 11.5C13.253 10.6703 13.0871 9.84896 12.7651 9.08426C12.4431 8.31956 11.9716 7.62688 11.3783 7.04688V5.25C11.3783 2.84687 9.40642 0.875 7.0033 0.875ZM7.0033 2.125C8.72517 2.125 10.1283 3.52812 10.1283 5.25V6.10938C9.20642 5.57187 8.14455 5.25 7.0033 5.25C5.86205 5.25 4.80017 5.5725 3.8783 6.10938V5.25C3.8783 3.52812 5.28142 2.125 7.0033 2.125ZM7.0033 6.5C9.77205 6.5 12.0033 8.73125 12.0033 11.5C12.0033 14.2687 9.77205 16.5 7.0033 16.5C4.23455 16.5 2.0033 14.2687 2.0033 11.5C2.0033 8.73125 4.23455 6.5 7.0033 6.5ZM7.0033 10.25C6.67178 10.25 6.35383 10.3817 6.11941 10.6161C5.88499 10.8505 5.7533 11.1685 5.7533 11.5C5.7533 11.9625 6.00517 12.3581 6.3783 12.575V14.625H7.6283V12.575C8.00142 12.3581 8.2533 11.9625 8.2533 11.5C8.2533 11.1685 8.1216 10.8505 7.88718 10.6161C7.65276 10.3817 7.33482 10.25 7.0033 10.25V10.25Z" fill="white"/>
</svg>
