<svg width="20" height="20" viewBox="0 0 20 20" fill="none" xmlns="http://www.w3.org/2000/svg">
<path opacity="0.8" fill-rule="evenodd" clip-rule="evenodd" d="M13.9706 2.65687C16.8553 5.54159 17.0764 10.0813 14.6339 13.2197L18.9203 17.5061C19.3108 17.8966 19.3108 18.5298 18.9203 18.9203C18.5298 19.3108 17.8966 19.3108 17.5061 18.9203L13.2197 14.6339C10.0813 17.0764 5.54158 16.8553 2.65685 13.9706C-0.46734 10.8464 -0.46734 5.78106 2.65685 2.65687C5.78105 -0.467328 10.8464 -0.467328 13.9706 2.65687ZM8.31371 14.3137C11.6274 14.3137 14.3137 11.6274 14.3137 8.31372C14.3137 5.00001 11.6274 2.31372 8.31371 2.31372C5 2.31372 2.31371 5.00001 2.31371 8.31372C2.31371 11.6274 5 14.3137 8.31371 14.3137Z" fill="white"/>
</svg>
