<svg width="23" height="23" viewBox="0 0 23 23" fill="none" xmlns="http://www.w3.org/2000/svg">
<rect opacity="0.8" y="23" width="23" height="23" rx="11.5" transform="rotate(-90 0 23)" fill="#2E126C"/>
<path d="M10.3333 17.3333C10.3333 17.8855 10.781 18.3333 11.3333 18.3333C11.8855 18.3333 12.3333 17.8855 12.3333 17.3333L10.3333 17.3333ZM12.0404 4.95948C11.6498 4.56895 11.0167 4.56895 10.6261 4.95948L4.26218 11.3234C3.87166 11.714 3.87166 12.3471 4.26218 12.7377C4.65271 13.1282 5.28587 13.1282 5.6764 12.7377L11.3333 7.0808L16.9901 12.7377C17.3806 13.1282 18.0138 13.1282 18.4043 12.7377C18.7948 12.3471 18.7948 11.714 18.4043 11.3234L12.0404 4.95948ZM12.3333 17.3333L12.3333 5.66659L10.3333 5.66659L10.3333 17.3333L12.3333 17.3333Z" fill="white" fill-opacity="0.8"/>
</svg>
