<svg width="30" height="30" viewBox="0 0 30 30" fill="none" xmlns="http://www.w3.org/2000/svg">
<path d="M27.9991 25.0781L15.8116 3.98438C15.63 3.6709 15.3165 3.51562 15.0001 3.51562C14.6837 3.51562 14.3673 3.6709 14.1885 3.98438L2.00105 25.0781C1.6407 25.7051 2.09187 26.4844 2.81257 26.4844H27.1876C27.9083 26.4844 28.3594 25.7051 27.9991 25.0781ZM5.04499 24.2607L15.0001 7.02832L24.9552 24.2607H5.04499Z" fill="#DF1A1A" fill-opacity="0.8"/>
<path d="M13.5938 21.0938C13.5938 21.4667 13.7419 21.8244 14.0056 22.0881C14.2694 22.3518 14.627 22.5 15 22.5C15.373 22.5 15.7306 22.3518 15.9944 22.0881C16.2581 21.8244 16.4062 21.4667 16.4062 21.0938C16.4062 20.7208 16.2581 20.3631 15.9944 20.0994C15.7306 19.8357 15.373 19.6875 15 19.6875C14.627 19.6875 14.2694 19.8357 14.0056 20.0994C13.7419 20.3631 13.5938 20.7208 13.5938 21.0938ZM14.0625 12.1875V17.5781C14.0625 17.707 14.168 17.8125 14.2969 17.8125H15.7031C15.832 17.8125 15.9375 17.707 15.9375 17.5781V12.1875C15.9375 12.0586 15.832 11.9531 15.7031 11.9531H14.2969C14.168 11.9531 14.0625 12.0586 14.0625 12.1875Z" fill="#DF1A1A" fill-opacity="0.8"/>
</svg>
